<svg width="803" height="803" xmlns="http://www.w3.org/2000/svg" xmlns:xlink="http://www.w3.org/1999/xlink" xml:space="preserve" overflow="hidden"><g transform="translate(-289 -366)"><path d="M303 767.5C303 553.49 476.49 380 690.5 380 904.51 380 1078 553.49 1078 767.5 1078 981.51 904.51 1155 690.5 1155 476.49 1155 303 981.51 303 767.5Z" stroke="#3E8044" stroke-width="27.5" stroke-miterlimit="8" fill="#64C964" fill-rule="evenodd"/><path d="M939 824C939 926.173 827.967 1009 691 1009 554.033 1009 443 926.173 443 824 605.75 854.833 776.25 854.833 939 824Z" fill="#3E8044" fill-rule="evenodd"/><path d="M440.95 773.478C422.552 722.929 448.615 667.035 499.165 648.636 549.715 630.238 605.608 656.302 624.007 706.851 567.696 670.1 492.255 685.957 455.504 742.268 449.199 751.929 444.298 762.438 440.95 773.478Z" fill="#3E8044" fill-rule="evenodd"/><path d="M97.4023 194.805C43.6085 194.805 0 151.196 0 97.4023-1.24006e-14 43.6085 43.6085-1.24006e-14 97.4023-2.48012e-14 43.6085 40.3454 32.7064 116.66 73.0517 170.454 79.9739 179.684 88.1728 187.882 97.4023 194.805Z" fill="#3E8044" fill-rule="evenodd" transform="matrix(-0.34202 0.939693 0.939693 0.34202 790.701 615.323)"/></g></svg>