<svg width="803" height="803" xmlns="http://www.w3.org/2000/svg" xmlns:xlink="http://www.w3.org/1999/xlink" xml:space="preserve" overflow="hidden"><g transform="translate(-1091 -366)"><path d="M1105 767.5C1105 553.49 1278.49 380 1492.5 380 1706.51 380 1880 553.49 1880 767.5 1880 981.51 1706.51 1155 1492.5 1155 1278.49 1155 1105 981.51 1105 767.5Z" stroke="#399339" stroke-width="27.5" stroke-miterlimit="8" fill="#9DD772" fill-rule="evenodd"/><path d="M1668 831C1668 911.081 1589.2 976 1492 976 1394.8 976 1316 911.081 1316 831 1430.77 859.557 1553.23 859.557 1668 831Z" fill="#399339" fill-rule="evenodd"/><path d="M1284 704C1284 676.938 1305.71 655 1332.5 655 1359.29 655 1381 676.938 1381 704 1381 731.062 1359.29 753 1332.5 753 1305.71 753 1284 731.062 1284 704Z" fill="#399339" fill-rule="evenodd"/><path d="M0 49.0002C-6.17469e-15 21.9381 21.7142-6.23837e-15 48.5-1.24767e-14 75.2858-2.49535e-14 96.9999 21.9381 96.9999 49.0002 96.9999 76.0622 75.2858 98.0003 48.5 98.0003 21.7142 98.0003-3.08735e-14 76.0622 0 49.0002Z" fill="#399339" fill-rule="evenodd" transform="matrix(-1 0 0 1 1700 655)"/></g></svg>