<svg width="803" height="803" xmlns="http://www.w3.org/2000/svg" xmlns:xlink="http://www.w3.org/1999/xlink" xml:space="preserve" overflow="hidden"><g transform="translate(-2738 -366)"><path d="M2752 767.5C2752 553.49 2925.49 380 3139.5 380 3353.51 380 3527 553.49 3527 767.5 3527 981.51 3353.51 1155 3139.5 1155 2925.49 1155 2752 981.51 2752 767.5Z" stroke="#C55A11" stroke-width="27.5" stroke-miterlimit="8" fill="#FB9E49" fill-rule="evenodd"/><path d="M90.0001 306C40.2944 306 0 237.5 0 153-1.14582e-14 68.5005 40.2944-1.9479e-14 90.0001-3.89579e-14 40.2944 23.6125 11.2599 111.255 25.1496 195.754 33.9428 249.249 58.5326 291.052 90.0001 306Z" fill="#C55A11" fill-rule="evenodd" transform="matrix(1.83697e-16 1 1 -1.83697e-16 2987 865)"/><path d="M2932 704C2932 676.938 2953.71 655 2980.5 655 3007.29 655 3029 676.938 3029 704 3029 731.062 3007.29 753 2980.5 753 2953.71 753 2932 731.062 2932 704Z" fill="#C55A11" fill-rule="evenodd"/><path d="M0 49.0002C-6.17472e-15 21.9381 21.7143-6.23837e-15 48.5001-1.24767e-14 75.286-2.49535e-14 97.0003 21.9381 97.0003 49.0002 97.0003 76.0622 75.286 98.0003 48.5001 98.0003 21.7143 98.0003-3.08736e-14 76.0622 0 49.0002Z" fill="#C55A11" fill-rule="evenodd" transform="matrix(-1 0 0 1 3348 655)"/></g></svg>