<svg width="804" height="803" xmlns="http://www.w3.org/2000/svg" xmlns:xlink="http://www.w3.org/1999/xlink" xml:space="preserve" overflow="hidden"><g transform="translate(-1914 -366)"><path d="M1928 767.5C1928 553.49 2101.71 380 2316 380 2530.29 380 2704 553.49 2704 767.5 2704 981.51 2530.29 1155 2316 1155 2101.71 1155 1928 981.51 1928 767.5Z" stroke="#BF9000" stroke-width="27.5" stroke-miterlimit="8" fill="#FFDE15" fill-rule="evenodd"/><path d="M2469 888C2469 905.121 2400.5 919 2316 919 2231.5 919 2163 905.121 2163 888 2242.71 905.121 2375.83 905.908 2460.33 889.757 2463.3 889.189 2466.19 888.603 2469 888Z" fill="#BF9000" fill-rule="evenodd"/><path d="M2108 704C2108 676.938 2129.71 655 2156.5 655 2183.29 655 2205 676.938 2205 704 2205 731.062 2183.29 753 2156.5 753 2129.71 753 2108 731.062 2108 704Z" fill="#BF9000" fill-rule="evenodd"/><path d="M0 49.0002C-6.17472e-15 21.9381 21.7143-6.23837e-15 48.5001-1.24767e-14 75.286-2.49535e-14 97.0003 21.9381 97.0003 49.0002 97.0003 76.0622 75.286 98.0003 48.5001 98.0003 21.7143 98.0003-3.08736e-14 76.0622 0 49.0002Z" fill="#BF9000" fill-rule="evenodd" transform="matrix(-1 0 0 1 2524 655)"/></g></svg>