<svg width="803" height="803" xmlns="http://www.w3.org/2000/svg" xmlns:xlink="http://www.w3.org/1999/xlink" xml:space="preserve" overflow="hidden"><g transform="translate(-3556 -366)"><path d="M3570 767.5C3570 553.49 3743.49 380 3957.5 380 4171.51 380 4345 553.49 4345 767.5 4345 981.51 4171.51 1155 3957.5 1155 3743.49 1155 3570 981.51 3570 767.5Z" stroke="#B13130" stroke-width="27.5" stroke-miterlimit="8" fill="#FD565F" fill-rule="evenodd"/><path d="M118 374C52.8303 374 0 290.277 0 187-1.5023e-14 83.7227 52.8303-2.38076e-14 118-4.76152e-14 52.8304 25.9936 13.2968 130.788 29.6991 234.066 40.6335 302.914 74.5556 356.672 118 374Z" fill="#B13130" fill-rule="evenodd" transform="matrix(1.83697e-16 1 1 -1.83697e-16 3770 846)"/><path d="M3886.78 652.821C3905.18 703.37 3879.11 759.264 3828.56 777.663 3778.01 796.061 3722.12 769.998 3703.72 719.448 3760.03 756.199 3835.47 740.342 3872.22 684.031 3878.53 674.37 3883.43 663.861 3886.78 652.821Z" fill="#B13130" fill-rule="evenodd"/><path d="M97.4023 194.805C43.6085 194.805 0 151.196 0 97.4023-1.24006e-14 43.6085 43.6085-1.24006e-14 97.4023-2.48012e-14 43.6085 40.3454 32.7064 116.66 73.0517 170.454 79.9739 179.684 88.1728 187.882 97.4023 194.805Z" fill="#B13130" fill-rule="evenodd" transform="matrix(0.34202 -0.939693 -0.939693 -0.34202 4177.51 810.976)"/><path d="M3943 1004 3957.5 918 3972 1004Z" fill="#B13130" fill-rule="evenodd"/><path d="M3880.25 990.998 3935.74 923.589 3905.11 1005.35Z" fill="#B13130" fill-rule="evenodd"/><path d="M4009.44 1005.35 3978.8 923.589 4034.29 990.998Z" fill="#B13130" fill-rule="evenodd"/></g></svg>