<svg width="775" height="775" xmlns="http://www.w3.org/2000/svg" xmlns:xlink="http://www.w3.org/1999/xlink" xml:space="preserve" overflow="hidden"><defs><clipPath id="clip0"><rect x="314" y="365" width="775" height="775"/></clipPath><radialGradient cx="1073728" cy="1073727" r="1518480" fx="1073728" fy="1073727" gradientUnits="userSpaceOnUse" spreadMethod="pad" id="fill1" gradientTransform="matrix(0.000360892 0 0 0.000360892 314 365)"><stop offset="0" stop-color="#FEE657"/><stop offset="0.1" stop-color="#FEE657"/><stop offset="0.5" stop-color="#FEE344"/><stop offset="1" stop-color="#FEE344"/></radialGradient></defs><g clip-path="url(#clip0)" transform="translate(-314 -365)"><path d="M314 752.5C314 538.49 487.49 365 701.5 365 915.51 365 1089 538.49 1089 752.5 1089 966.51 915.51 1140 701.5 1140 487.49 1140 314 966.51 314 752.5Z" fill="url(#fill1)" fill-rule="evenodd"/><path d="M854 874C854 890.569 785.499 904 701 904 616.5 904 548 890.569 548 874 627.71 890.569 760.828 891.33 845.327 875.701 848.302 875.151 851.194 874.584 854 874Z" fill="#D29C04" fill-rule="evenodd"/><path d="M493 689.5C493 662.714 514.714 641 541.5 641 568.286 641 590 662.714 590 689.5 590 716.286 568.286 738 541.5 738 514.714 738 493 716.286 493 689.5Z" fill="#D29C04" fill-rule="evenodd"/><path d="M0 48.5C-6.23835e-15 21.7142 21.938-6.17469e-15 49-1.23494e-14 76.0619-2.46988e-14 98 21.7142 98 48.5 98 75.2858 76.0619 96.9999 49 96.9999 21.938 96.9999-3.11918e-14 75.2858 0 48.5Z" fill="#D29C04" fill-rule="evenodd" transform="matrix(-1 0 0 1 910 641)"/></g></svg>