<svg width="775" height="775" xmlns="http://www.w3.org/2000/svg" xmlns:xlink="http://www.w3.org/1999/xlink" xml:space="preserve" overflow="hidden"><defs><clipPath id="clip0"><rect x="3012" y="370" width="775" height="775"/></clipPath><radialGradient cx="1073728" cy="1073728" r="1518480" gradientUnits="userSpaceOnUse" spreadMethod="pad" id="fill1" gradientTransform="matrix(0.000360892 0 0 0.000360892 3012 370)"><stop offset="0" stop-color="#B3E4F6"/><stop offset="0.1" stop-color="#B3E4F6"/><stop offset="0.7" stop-color="#92D9F2"/><stop offset="1" stop-color="#92D9F2"/></radialGradient></defs><g clip-path="url(#clip0)" transform="translate(-3012 -370)"><path d="M3012 757.5C3012 543.49 3185.49 370 3399.5 370 3613.51 370 3787 543.49 3787 757.5 3787 971.51 3613.51 1145 3399.5 1145 3185.49 1145 3012 971.51 3012 757.5Z" fill="url(#fill1)" fill-rule="evenodd"/><path d="M3648 814C3648 916.173 3536.97 999 3400 999 3263.03 999 3152 916.173 3152 814 3314.75 844.833 3485.25 844.833 3648 814Z" fill="#257CB1" fill-rule="evenodd"/><path d="M3151.91 620.042C3142.61 613.752 3140.17 601.117 3146.46 591.821L3146.46 591.821C3152.75 582.526 3165.39 580.089 3174.69 586.38L3317.78 683.211C3327.07 689.501 3329.51 702.136 3323.22 711.431L3323.22 711.431C3316.93 720.727 3304.29 723.163 3295 716.873Z" fill="#257CB1" fill-rule="evenodd"/><path d="M3297.54 684.655C3307.67 679.827 3319.8 684.127 3324.63 694.26L3324.63 694.26C3329.46 704.392 3325.16 716.52 3315.02 721.348L3179.79 785.784C3169.66 790.612 3157.53 786.312 3152.7 776.18L3152.7 776.18C3147.87 766.047 3152.17 753.919 3162.3 749.092Z" fill="#257CB1" fill-rule="evenodd"/><path d="M0 20.3227C-3.39643e-15 9.09877 9.09878-3.39643e-15 20.3227-6.79286e-15L20.3227 0C31.5466-6.79286e-15 40.6454 9.09877 40.6454 20.3227L40.6451 193.099C40.6451 204.323 31.5464 213.422 20.3225 213.422L20.3227 213.422C9.09878 213.422 0 204.323 0 193.099Z" fill="#257CB1" fill-rule="evenodd" transform="matrix(-0.56044 -0.828195 -0.828195 0.56044 3664.18 608.652)"/><path d="M0 20.3226C-3.03081e-15 9.09875 9.09877 0 20.3227 0L20.3227 0C31.5466-3.0308e-15 40.6454 9.09875 40.6454 20.3226L40.6451 170.124C40.6451 181.348 31.5464 190.447 20.3225 190.447L20.3227 190.447C9.09877 190.447 0 181.348 0 170.124Z" fill="#257CB1" fill-rule="evenodd" transform="matrix(-0.430146 0.902759 0.902759 0.430146 3483.37 675.913)"/></g></svg>