<svg width="775" height="775" xmlns="http://www.w3.org/2000/svg" xmlns:xlink="http://www.w3.org/1999/xlink" xml:space="preserve" overflow="hidden"><defs><clipPath id="clip0"><rect x="2113" y="370" width="775" height="775"/></clipPath><radialGradient cx="1073727" cy="1073728" r="1518480" fx="1073727" fy="1073728" gradientUnits="userSpaceOnUse" spreadMethod="pad" id="fill1" gradientTransform="matrix(0.000360892 0 0 0.000360892 2113 370)"><stop offset="0" stop-color="#8FD88F"/><stop offset="0.1" stop-color="#8FD88F"/><stop offset="0.7" stop-color="#64C964"/><stop offset="1" stop-color="#64C964"/></radialGradient></defs><g clip-path="url(#clip0)" transform="translate(-2113 -370)"><path d="M2113 757.5C2113 543.49 2286.49 370 2500.5 370 2714.51 370 2888 543.49 2888 757.5 2888 971.51 2714.51 1145 2500.5 1145 2286.49 1145 2113 971.51 2113 757.5Z" fill="url(#fill1)" fill-rule="evenodd"/><path d="M2748 814C2748 916.173 2636.97 999 2500 999 2363.03 999 2252 916.173 2252 814 2414.75 844.833 2585.25 844.833 2748 814Z" fill="#3E8044" fill-rule="evenodd"/><path d="M2250.43 763.499C2232.03 712.949 2258.1 657.055 2308.65 638.657 2359.2 620.258 2415.09 646.322 2433.49 696.871 2377.18 660.121 2301.74 675.977 2264.99 732.288 2258.68 741.95 2253.78 752.458 2250.43 763.499Z" fill="#3E8044" fill-rule="evenodd"/><path d="M97.4023 194.805C43.6085 194.805 0 151.196 0 97.4023-1.24006e-14 43.6085 43.6085-1.24006e-14 97.4023-2.48012e-14 43.6085 40.3454 32.7064 116.66 73.0517 170.454 79.9739 179.684 88.1728 187.882 97.4023 194.805Z" fill="#3E8044" fill-rule="evenodd" transform="matrix(-0.34202 0.939693 0.939693 0.34202 2600.18 605.343)"/></g></svg>