<svg width="776" height="775" xmlns="http://www.w3.org/2000/svg" xmlns:xlink="http://www.w3.org/1999/xlink" xml:space="preserve" overflow="hidden"><defs><clipPath id="clip0"><rect x="1228" y="380" width="776" height="775"/></clipPath><radialGradient cx="1075113" cy="1073728" r="1519460" gradientUnits="userSpaceOnUse" spreadMethod="pad" id="fill1" gradientTransform="matrix(0.000360892 0 0 0.000360892 1228 380)"><stop offset="0" stop-color="#A7DB80"/><stop offset="0.1" stop-color="#A7DB80"/><stop offset="0.5" stop-color="#9DD772"/><stop offset="1" stop-color="#9DD772"/></radialGradient></defs><g clip-path="url(#clip0)" transform="translate(-1228 -380)"><path d="M1228 767.5C1228 553.49 1401.71 380 1616 380 1830.29 380 2004 553.49 2004 767.5 2004 981.51 1830.29 1155 1616 1155 1401.71 1155 1228 981.51 1228 767.5Z" fill="url(#fill1)" fill-rule="evenodd"/><path d="M1792 831C1792 911.081 1713.2 976 1616 976 1518.8 976 1440 911.081 1440 831 1554.77 859.557 1677.23 859.557 1792 831Z" fill="#399339" fill-rule="evenodd"/><path d="M1408 704C1408 676.938 1429.71 655 1456.5 655 1483.29 655 1505 676.938 1505 704 1505 731.062 1483.29 753 1456.5 753 1429.71 753 1408 731.062 1408 704Z" fill="#399339" fill-rule="evenodd"/><path d="M0 49.0002C-6.17469e-15 21.9381 21.7142-6.23837e-15 48.5-1.24767e-14 75.2858-2.49535e-14 96.9999 21.9381 96.9999 49.0002 96.9999 76.0622 75.2858 98.0003 48.5 98.0003 21.7142 98.0003-3.08735e-14 76.0622 0 49.0002Z" fill="#399339" fill-rule="evenodd" transform="matrix(-1 0 0 1 1824 655)"/></g></svg>