<svg width="775" height="775" xmlns="http://www.w3.org/2000/svg" xmlns:xlink="http://www.w3.org/1999/xlink" xml:space="preserve" overflow="hidden"><defs><clipPath id="clip0"><rect x="314" y="1263" width="775" height="775"/></clipPath><radialGradient cx="1073728" cy="1073728" r="1518480" gradientUnits="userSpaceOnUse" spreadMethod="pad" id="fill1" gradientTransform="matrix(0.000360892 0 0 0.000360892 314 1263)"><stop offset="0" stop-color="#FCBB80"/><stop offset="0.1" stop-color="#FCBB80"/><stop offset="0.7" stop-color="#FB9E49"/><stop offset="1" stop-color="#FB9E49"/></radialGradient></defs><g clip-path="url(#clip0)" transform="translate(-314 -1263)"><path d="M314 1650.5C314 1436.49 487.49 1263 701.5 1263 915.51 1263 1089 1436.49 1089 1650.5 1089 1864.51 915.51 2038 701.5 2038 487.49 2038 314 1864.51 314 1650.5Z" fill="url(#fill1)" fill-rule="evenodd"/><path d="M90.0001 306C40.2944 306 0 237.5 0 153-1.14582e-14 68.5004 40.2944-1.94789e-14 90.0001-3.89579e-14 40.2944 23.6125 11.2599 111.255 25.1496 195.754 33.9428 249.249 58.5326 291.051 90.0001 306Z" fill="#C55A11" fill-rule="evenodd" transform="matrix(1.83697e-16 1 1 -1.83697e-16 548 1748)"/><path d="M493 1587C493 1559.94 514.714 1538 541.5 1538 568.286 1538 590 1559.94 590 1587 590 1614.06 568.286 1636 541.5 1636 514.714 1636 493 1614.06 493 1587Z" fill="#C55A11" fill-rule="evenodd"/><path d="M0 49C-6.23835e-15 21.938 21.938-6.23835e-15 49-1.24767e-14 76.0619-2.49534e-14 98 21.938 98 49 98 76.0619 76.0619 98 49 98 21.938 98-3.11918e-14 76.0619 0 49Z" fill="#C55A11" fill-rule="evenodd" transform="matrix(-1 0 0 1 910 1538)"/></g></svg>