<svg width="775" height="776" xmlns="http://www.w3.org/2000/svg" xmlns:xlink="http://www.w3.org/1999/xlink" xml:space="preserve" overflow="hidden"><defs><clipPath id="clip0"><rect x="1020" y="1332" width="775" height="776"/></clipPath><radialGradient cx="1073728" cy="1075113" r="1519460" fx="1073728" fy="1075112" gradientUnits="userSpaceOnUse" spreadMethod="pad" id="fill1" gradientTransform="matrix(0.000360892 0 0 0.000360892 1020 1332)"><stop offset="0" stop-color="#FBA85B"/><stop offset="0.1" stop-color="#FBA85B"/><stop offset="0.5" stop-color="#FB9E49"/><stop offset="1" stop-color="#FB9E49"/></radialGradient></defs><g clip-path="url(#clip0)" transform="translate(-1020 -1332)"><path d="M1020 1720C1020 1505.71 1193.49 1332 1407.5 1332 1621.51 1332 1795 1505.71 1795 1720 1795 1934.29 1621.51 2108 1407.5 2108 1193.49 2108 1020 1934.29 1020 1720Z" fill="url(#fill1)" fill-rule="evenodd"/><path d="M90.0001 306C40.2944 306 0 237.5 0 153-1.14582e-14 68.5004 40.2944-1.94789e-14 90.0001-3.89579e-14 40.2944 23.6125 11.2599 111.255 25.1496 195.754 33.9428 249.249 58.5326 291.051 90.0001 306Z" fill="#C55A11" fill-rule="evenodd" transform="matrix(1.83697e-16 1 1 -1.83697e-16 1255 1817)"/><path d="M1199 1656.5C1199 1629.71 1220.94 1608 1248 1608 1275.06 1608 1297 1629.71 1297 1656.5 1297 1683.29 1275.06 1705 1248 1705 1220.94 1705 1199 1683.29 1199 1656.5Z" fill="#C55A11" fill-rule="evenodd"/><path d="M0 48.5C-6.17469e-15 21.7142 21.7142-6.17469e-15 48.5-1.23494e-14 75.2858-2.46988e-14 96.9999 21.7142 96.9999 48.5 96.9999 75.2858 75.2858 96.9999 48.5 96.9999 21.7142 96.9999-3.08735e-14 75.2858 0 48.5Z" fill="#C55A11" fill-rule="evenodd" transform="matrix(-1 0 0 1 1616 1608)"/></g></svg>