<svg width="775" height="775" xmlns="http://www.w3.org/2000/svg" xmlns:xlink="http://www.w3.org/1999/xlink" xml:space="preserve" overflow="hidden"><defs><clipPath id="clip0"><rect x="3012" y="351" width="775" height="775"/></clipPath><radialGradient cx="1073728" cy="1073728" r="1518480" gradientUnits="userSpaceOnUse" spreadMethod="pad" id="fill1" gradientTransform="matrix(0.000360892 0 0 0.000360892 3012 351)"><stop offset="0" stop-color="#9DDDF3"/><stop offset="0.1" stop-color="#9DDDF3"/><stop offset="0.5" stop-color="#92D9F2"/><stop offset="1" stop-color="#92D9F2"/></radialGradient></defs><g clip-path="url(#clip0)" transform="translate(-3012 -351)"><path d="M3012 738.5C3012 524.49 3185.49 351 3399.5 351 3613.51 351 3787 524.49 3787 738.5 3787 952.51 3613.51 1126 3399.5 1126 3185.49 1126 3012 952.51 3012 738.5Z" fill="url(#fill1)" fill-rule="evenodd"/><path d="M3648 794C3648 896.173 3536.97 979 3400 979 3263.03 979 3152 896.173 3152 794 3314.75 824.834 3485.25 824.833 3648 794Z" fill="#257CB1" fill-rule="evenodd"/><path d="M3144.2 575.87 3229 584.346 3341.74 685.044 3211.3 761.435 3126.5 752.959 3256.94 676.568Z" fill="#257CB1" fill-rule="evenodd"/><path d="M0 0 85.2207 0 207.416 88.986 85.2207 177.972 0 177.972 122.195 88.986Z" fill="#257CB1" fill-rule="evenodd" transform="matrix(-0.995042 0.0994596 0.0994596 0.995042 3655.05 575.87)"/></g></svg>