<svg width="775" height="775" xmlns="http://www.w3.org/2000/svg" xmlns:xlink="http://www.w3.org/1999/xlink" xml:space="preserve" overflow="hidden"><defs><clipPath id="clip0"><rect x="1213" y="370" width="775" height="775"/></clipPath><radialGradient cx="1073727" cy="1073728" r="1518480" fx="1073727" fy="1073728" gradientUnits="userSpaceOnUse" spreadMethod="pad" id="fill1" gradientTransform="matrix(0.000360892 0 0 0.000360892 1213 370)"><stop offset="0" stop-color="#BAE39C"/><stop offset="0.1" stop-color="#BAE39C"/><stop offset="0.7" stop-color="#9DD772"/><stop offset="1" stop-color="#9DD772"/></radialGradient></defs><g clip-path="url(#clip0)" transform="translate(-1213 -370)"><path d="M1213 757.5C1213 543.49 1386.49 370 1600.5 370 1814.51 370 1988 543.49 1988 757.5 1988 971.51 1814.51 1145 1600.5 1145 1386.49 1145 1213 971.51 1213 757.5Z" fill="url(#fill1)" fill-rule="evenodd"/><path d="M1776 821C1776 901.081 1697.43 966 1600.5 966 1503.57 966 1425 901.081 1425 821 1539.45 849.557 1661.55 849.557 1776 821Z" fill="#399339" fill-rule="evenodd"/><path d="M1392 694C1392 666.938 1413.94 645 1441 645 1468.06 645 1490 666.938 1490 694 1490 721.062 1468.06 743 1441 743 1413.94 743 1392 721.062 1392 694Z" fill="#399339" fill-rule="evenodd"/><path d="M0 49C-6.17472e-15 21.938 21.7143-6.23835e-15 48.5001-1.24767e-14 75.286-2.49534e-14 97.0003 21.938 97.0003 49 97.0003 76.0619 75.286 98 48.5001 98 21.7143 98-3.08736e-14 76.0619 0 49Z" fill="#399339" fill-rule="evenodd" transform="matrix(-1 0 0 1 1809 645)"/></g></svg>