<svg width="775" height="775" xmlns="http://www.w3.org/2000/svg" xmlns:xlink="http://www.w3.org/1999/xlink" xml:space="preserve" overflow="hidden"><defs><clipPath id="clip0"><rect x="314" y="370" width="775" height="775"/></clipPath><radialGradient cx="1073728" cy="1073728" r="1518480" gradientUnits="userSpaceOnUse" spreadMethod="pad" id="fill1" gradientTransform="matrix(0.000360892 0 0 0.000360892 314 370)"><stop offset="0" stop-color="#FEEE8F"/><stop offset="0.1" stop-color="#FEEE8F"/><stop offset="0.7" stop-color="#FEE344"/><stop offset="1" stop-color="#FEE344"/></radialGradient></defs><g clip-path="url(#clip0)" transform="translate(-314 -370)"><path d="M314 757.5C314 543.49 487.49 370 701.5 370 915.51 370 1089 543.49 1089 757.5 1089 971.51 915.51 1145 701.5 1145 487.49 1145 314 971.51 314 757.5Z" fill="url(#fill1)" fill-rule="evenodd"/><path d="M854 878C854 895.121 785.499 909 701 909 616.5 909 548 895.121 548 878 627.71 895.121 760.828 895.907 845.328 879.757 848.302 879.189 851.194 878.603 854 878Z" fill="#D29C04" fill-rule="evenodd"/><path d="M493 694C493 666.938 514.714 645 541.5 645 568.286 645 590 666.938 590 694 590 721.062 568.286 743 541.5 743 514.714 743 493 721.062 493 694Z" fill="#D29C04" fill-rule="evenodd"/><path d="M0 49C-6.23835e-15 21.938 21.938-6.23835e-15 49-1.24767e-14 76.0619-2.49534e-14 98 21.938 98 49 98 76.0619 76.0619 98 49 98 21.938 98-3.11918e-14 76.0619 0 49Z" fill="#D29C04" fill-rule="evenodd" transform="matrix(-1 0 0 1 910 645)"/></g></svg>