<svg width="775" height="775" xmlns="http://www.w3.org/2000/svg" xmlns:xlink="http://www.w3.org/1999/xlink" xml:space="preserve" overflow="hidden"><defs><clipPath id="clip0"><rect x="3012" y="370" width="775" height="775"/></clipPath><radialGradient cx="1073728" cy="1073728" r="1518480" gradientUnits="userSpaceOnUse" spreadMethod="pad" id="fill1" gradientTransform="matrix(0.000360892 0 0 0.000360892 3012 370)"><stop offset="0" stop-color="#B3E4F6"/><stop offset="0.1" stop-color="#B3E4F6"/><stop offset="0.7" stop-color="#92D9F2"/><stop offset="1" stop-color="#92D9F2"/></radialGradient></defs><g clip-path="url(#clip0)" transform="translate(-3012 -370)"><path d="M3012 757.5C3012 543.49 3185.49 370 3399.5 370 3613.51 370 3787 543.49 3787 757.5 3787 971.51 3613.51 1145 3399.5 1145 3185.49 1145 3012 971.51 3012 757.5Z" fill="url(#fill1)" fill-rule="evenodd"/><path d="M3648 814C3648 916.173 3536.97 999 3400 999 3263.03 999 3152 916.173 3152 814 3314.75 844.833 3485.25 844.833 3648 814Z" fill="#257CB1" fill-rule="evenodd"/><path d="M3160.77 598.576 3185.26 572.189 3322.89 703.551 3162.55 803.135 3143.2 774.36 3265.02 697.767 3160.77 598.576Z" fill="#257CB1" fill-rule="evenodd"/><path d="M0 28.6919 21.7453 0 171.759 117.022 22.1143 232.06 0 205.352 113.604 117.022 0 28.6919Z" fill="#257CB1" fill-rule="evenodd" transform="matrix(-0.995042 0.0994596 0.0994596 0.995042 3635.63 570.026)"/></g></svg>