<svg width="775" height="775" xmlns="http://www.w3.org/2000/svg" xmlns:xlink="http://www.w3.org/1999/xlink" xml:space="preserve" overflow="hidden"><defs><clipPath id="clip0"><rect x="1873" y="1260" width="775" height="775"/></clipPath><radialGradient cx="1073727" cy="1073728" r="1518480" fx="1073727" fy="1073728" gradientUnits="userSpaceOnUse" spreadMethod="pad" id="fill1" gradientTransform="matrix(0.000360892 0 0 0.000360892 1873 1260)"><stop offset="0" stop-color="#FD676F"/><stop offset="0.1" stop-color="#FD676F"/><stop offset="0.5" stop-color="#FD565F"/><stop offset="1" stop-color="#FD565F"/></radialGradient></defs><g clip-path="url(#clip0)" transform="translate(-1873 -1260)"><path d="M1873 1647.5C1873 1433.49 2046.49 1260 2260.5 1260 2474.51 1260 2648 1433.49 2648 1647.5 2648 1861.51 2474.51 2035 2260.5 2035 2046.49 2035 1873 1861.51 1873 1647.5Z" fill="url(#fill1)" fill-rule="evenodd"/><path d="M119 374C53.2781 374 0 290.277 0 187-1.51503e-14 83.7227 53.2781-2.38076e-14 119-4.76152e-14 53.2781 93.7118 48.3435 253.403 107.978 356.68 111.472 362.73 115.15 368.51 119 374Z" fill="#B13130" fill-rule="evenodd" transform="matrix(1.83697e-16 1 1 -1.83697e-16 2074 1726)"/><path d="M2485.95 1520.19C2513.62 1566.32 2498.67 1626.15 2452.54 1653.83 2406.42 1681.51 2346.59 1666.56 2318.91 1620.43 2384.58 1607.53 2443.67 1572.07 2485.95 1520.19Z" fill="#B13130" fill-rule="evenodd"/><path d="M97.4023 194.805C43.6085 194.805 0 151.196 0 97.4023-1.24006e-14 43.6085 43.6085-1.24006e-14 97.4023-2.48012e-14 80.7634 63.869 80.7634 130.936 97.4024 194.805Z" fill="#B13130" fill-rule="evenodd" transform="matrix(0.514549 -0.857461 -0.857461 -0.514549 2152.19 1703.95)"/><path d="M0 133 14.4999 0 28.9999 133Z" fill="#B13130" fill-rule="evenodd" transform="matrix(1 0 0 -1 2246 1629)"/><path d="M0 132.809 14.3491 0 28.6982 132.809Z" fill="#B13130" fill-rule="evenodd" transform="matrix(0.952014 -0.306054 -0.306054 -0.952014 2223.63 1629.79)"/><path d="M2338.24 1503.35 2283.93 1625.4 2310.91 1494.57Z" fill="#B13130" fill-rule="evenodd"/></g></svg>