<svg width="775" height="775" xmlns="http://www.w3.org/2000/svg" xmlns:xlink="http://www.w3.org/1999/xlink" xml:space="preserve" overflow="hidden"><defs><clipPath id="clip0"><rect x="1213" y="1263" width="775" height="775"/></clipPath><radialGradient cx="1073727" cy="1073728" r="1518480" fx="1073727" fy="1073728" gradientUnits="userSpaceOnUse" spreadMethod="pad" id="fill1" gradientTransform="matrix(0.000360892 0 0 0.000360892 1213 1263)"><stop offset="0" stop-color="#FD8087"/><stop offset="0.1" stop-color="#FD8087"/><stop offset="0.7" stop-color="#FD565F"/><stop offset="1" stop-color="#FD565F"/></radialGradient></defs><g clip-path="url(#clip0)" transform="translate(-1213 -1263)"><path d="M1213 1650.5C1213 1436.49 1386.49 1263 1600.5 1263 1814.51 1263 1988 1436.49 1988 1650.5 1988 1864.51 1814.51 2038 1600.5 2038 1386.49 2038 1213 1864.51 1213 1650.5Z" fill="url(#fill1)" fill-rule="evenodd"/><path d="M119 374C53.2781 374 0 290.277 0 187-1.51503e-14 83.7227 53.2781-2.38076e-14 119-4.76152e-14 53.2781 93.7118 48.3435 253.403 107.978 356.68 111.472 362.73 115.15 368.51 119 374Z" fill="#B13130" fill-rule="evenodd" transform="matrix(1.83697e-16 1 1 -1.83697e-16 1414 1729)"/><path d="M1826.07 1522.78C1853.75 1568.9 1838.79 1628.74 1792.67 1656.42 1746.54 1684.1 1686.71 1669.14 1659.03 1623.02 1724.7 1610.12 1783.79 1574.66 1826.07 1522.78Z" fill="#B13130" fill-rule="evenodd"/><path d="M97.4023 194.805C43.6085 194.805 0 151.196 0 97.4023-1.24006e-14 43.6085 43.6085-1.24006e-14 97.4023-2.48012e-14 80.7634 63.869 80.7634 130.936 97.4024 194.805Z" fill="#B13130" fill-rule="evenodd" transform="matrix(0.514549 -0.857461 -0.857461 -0.514549 1492.31 1706.53)"/><path d="M0 133 14.4999 0 28.9999 133Z" fill="#B13130" fill-rule="evenodd" transform="matrix(1 0 0 -1 1586 1631)"/><path d="M0 132.809 14.3491 0 28.6982 132.809Z" fill="#B13130" fill-rule="evenodd" transform="matrix(0.952014 -0.306054 -0.306054 -0.952014 1563.75 1632.37)"/><path d="M1678.36 1505.94 1624.05 1627.98 1651.04 1497.15Z" fill="#B13130" fill-rule="evenodd"/></g></svg>