<svg width="775" height="775" xmlns="http://www.w3.org/2000/svg" xmlns:xlink="http://www.w3.org/1999/xlink" xml:space="preserve" overflow="hidden"><defs><clipPath id="clip0"><rect x="2716" y="1238" width="775" height="775"/></clipPath><radialGradient cx="1073728" cy="1073728" r="1518480" gradientUnits="userSpaceOnUse" spreadMethod="pad" id="fill1" gradientTransform="matrix(0.000360892 0 0 0.000360892 2716 1238)"><stop offset="0" stop-color="#C6AFDE"/><stop offset="0.1" stop-color="#C6AFDE"/><stop offset="0.5" stop-color="#C0A6DA"/><stop offset="1" stop-color="#C0A6DA"/></radialGradient></defs><g clip-path="url(#clip0)" transform="translate(-2716 -1238)"><path d="M2716 1625.5C2716 1411.49 2889.49 1238 3103.5 1238 3317.51 1238 3491 1411.49 3491 1625.5 3491 1839.51 3317.51 2013 3103.5 2013 2889.49 2013 2716 1839.51 2716 1625.5Z" fill="url(#fill1)" fill-rule="evenodd"/><path d="M119 374C53.2781 374 0 290.277 0 187-1.51503e-14 83.7227 53.2781-2.38076e-14 119-4.76152e-14 53.2781 25.9936 13.4094 130.788 29.9508 234.066 40.9778 302.914 75.1874 356.672 119 374Z" fill="#824A98" fill-rule="evenodd" transform="matrix(1.83697e-16 1 1 -1.83697e-16 2917 1703)"/><path d="M3033.19 1510.44C3051.59 1560.99 3025.52 1616.88 2974.97 1635.28 2924.42 1653.68 2868.53 1627.61 2850.13 1577.06 2906.44 1613.81 2981.88 1597.96 3018.63 1541.65 3024.94 1531.99 3029.84 1521.48 3033.19 1510.44Z" fill="#824A98" fill-rule="evenodd"/><path d="M97.4023 194.805C43.6085 194.805 0 151.196 0 97.4023-1.24006e-14 43.6085 43.6085-1.24006e-14 97.4023-2.48012e-14 43.6085 40.3454 32.7064 116.66 73.0517 170.454 79.9739 179.684 88.1728 187.882 97.4023 194.805Z" fill="#824A98" fill-rule="evenodd" transform="matrix(0.34202 -0.939693 -0.939693 -0.34202 3323.92 1668.59)"/><path d="M3089 1862 3103.5 1775 3118 1862Z" fill="#824A98" fill-rule="evenodd"/><path d="M3026.66 1848.61 3082.15 1781.21 3051.52 1862.96Z" fill="#824A98" fill-rule="evenodd"/><path d="M3155.85 1862.96 3125.21 1781.21 3180.7 1848.61Z" fill="#824A98" fill-rule="evenodd"/></g></svg>