<svg width="775" height="775" xmlns="http://www.w3.org/2000/svg" xmlns:xlink="http://www.w3.org/1999/xlink" xml:space="preserve" overflow="hidden"><defs><radialGradient cx="1073727" cy="1073727" r="1518479" gradientUnits="userSpaceOnUse" spreadMethod="pad" id="fill0" gradientTransform="matrix(0.000360892 0 0 0.000360892 2093 389)"><stop offset="0" stop-color="#74CE74"/><stop offset="0.1" stop-color="#74CE74"/><stop offset="0.5" stop-color="#64C964"/><stop offset="1" stop-color="#64C964"/></radialGradient></defs><g transform="translate(-2093 -389)"><path d="M2093 776.5C2093 562.49 2266.49 389 2480.5 389 2694.51 389 2868 562.49 2868 776.5 2868 990.51 2694.51 1164 2480.5 1164 2266.49 1164 2093 990.51 2093 776.5Z" fill="url(#fill0)" fill-rule="evenodd"/><path d="M2728 833C2728 935.173 2616.97 1018 2480 1018 2343.03 1018 2232 935.173 2232 833 2394.75 863.833 2565.25 863.833 2728 833Z" fill="#3E8044" fill-rule="evenodd"/><path d="M2230.5 782.791C2212.1 732.241 2238.17 676.348 2288.72 657.949 2339.27 639.551 2395.16 665.614 2413.56 716.164 2357.25 679.413 2281.81 695.27 2245.06 751.581 2238.75 761.242 2233.85 771.751 2230.5 782.791Z" fill="#3E8044" fill-rule="evenodd"/><path d="M97.4023 194.805C43.6085 194.805 0 151.196 0 97.4023-1.24006e-14 43.6085 43.6085-1.24006e-14 97.4023-2.48012e-14 43.6085 40.3454 32.7064 116.66 73.0517 170.454 79.9739 179.684 88.1728 187.882 97.4023 194.805Z" fill="#3E8044" fill-rule="evenodd" transform="matrix(-0.34202 0.939693 0.939693 0.34202 2580.25 624.636)"/></g></svg>