<svg width="775" height="775" xmlns="http://www.w3.org/2000/svg" xmlns:xlink="http://www.w3.org/1999/xlink" xml:space="preserve" overflow="hidden"><defs><clipPath id="clip0"><rect x="3012" y="1263" width="775" height="775"/></clipPath></defs><g clip-path="url(#clip0)" transform="translate(-3012 -1263)"><path d="M3012 1650.5C3012 1436.49 3185.49 1263 3399.5 1263 3613.51 1263 3787 1436.49 3787 1650.5 3787 1864.51 3613.51 2038 3399.5 2038 3185.49 2038 3012 1864.51 3012 1650.5Z" fill="#A0A3EA" fill-rule="evenodd"/><path d="M3563.47 1412.43 3563.47 1412.43 3563.47 1412.43ZM3589.65 1401.59C3599.13 1401.59 3608.61 1405.2 3615.84 1412.43L3684.76 1481.36C3699.23 1495.82 3699.23 1519.27 3684.76 1533.73L3684.76 1533.73 3682.34 1535.33 3682.75 1535.74 3626.35 1592.14 3565.71 1531.49 3626.35 1592.14 3589.65 1628.84 3589.65 1628.84 3346.19 1872.3 3346.19 1872.3 3203.64 1893.56 3224.9 1751 3224.9 1751 3468.36 1507.54 3529.01 1568.19 3468.36 1507.54 3505.06 1470.84 3505.06 1470.84 3561.46 1414.45 3561.86 1414.85 3563.47 1412.43 3575.72 1404.3C3580.18 1402.49 3584.92 1401.59 3589.65 1401.59Z" fill="#6B66D0" fill-rule="evenodd" fill-opacity="0.301961"/><path d="M3433.42 1496.91 3554.71 1618.2 3311.25 1861.66 3189.96 1740.37Z" fill="#6B66D0" fill-rule="evenodd"/><path d="M3470.12 1460.21 3591.41 1581.5 3554.71 1618.2 3433.42 1496.91Z" fill="#A9ABE9" fill-rule="evenodd"/><path d="M3526.52 1403.81 3647.81 1525.11 3591.41 1581.5 3470.12 1460.21Z" fill="#7E7BD9" fill-rule="evenodd"/><path d="M3528.53 1401.8C3542.99 1387.34 3566.44 1387.34 3580.9 1401.8L3649.82 1470.73C3664.28 1485.19 3664.28 1508.63 3649.82 1523.09L3649.82 1523.09C3635.36 1537.55 3611.92 1537.55 3597.46 1523.09L3528.53 1454.17C3514.07 1439.7 3514.07 1416.26 3528.53 1401.8Z" fill="#7E7BD9" fill-rule="evenodd"/><path d="M0 115.832 85.7679 0 171.536 115.832Z" fill="#A9ABE9" fill-rule="evenodd" transform="matrix(0.707107 0.707107 0.707107 -0.707107 3108.05 1822.28)"/><path d="M0 30.983 22.9412 0 45.8824 30.983Z" fill="#6B66D0" fill-rule="evenodd" transform="matrix(0.707107 0.707107 0.707107 -0.707107 3152.48 1866.7)"/></g></svg>