<svg width="775" height="775" xmlns="http://www.w3.org/2000/svg" xmlns:xlink="http://www.w3.org/1999/xlink" xml:space="preserve" overflow="hidden"><defs><clipPath id="clip0"><rect x="2113" y="1263" width="775" height="775"/></clipPath><radialGradient cx="1073727" cy="1073728" r="1518480" fx="1073727" fy="1073728" gradientUnits="userSpaceOnUse" spreadMethod="pad" id="fill1" gradientTransform="matrix(0.000360892 0 0 0.000360892 2113 1263)"><stop offset="0" stop-color="#D8CAE6"/><stop offset="0.1" stop-color="#D8CAE6"/><stop offset="0.7" stop-color="#CBB8DE"/><stop offset="1" stop-color="#CBB8DE"/></radialGradient></defs><g clip-path="url(#clip0)" transform="translate(-2113 -1263)"><path d="M2113 1650.5C2113 1436.49 2286.49 1263 2500.5 1263 2714.51 1263 2888 1436.49 2888 1650.5 2888 1864.51 2714.51 2038 2500.5 2038 2286.49 2038 2113 1864.51 2113 1650.5Z" fill="url(#fill1)" fill-rule="evenodd"/><path d="M119 374C53.2781 374 0 290.277 0 187-1.51503e-14 83.7227 53.2781-2.38076e-14 119-4.76152e-14 53.2781 25.9936 13.4094 130.788 29.9508 234.066 40.9778 302.914 75.1874 356.672 119 374Z" fill="#77608E" fill-rule="evenodd" transform="matrix(1.83697e-16 1 1 -1.83697e-16 2313 1729)"/><path d="M2429.68 1535.86C2448.08 1586.41 2422.02 1642.3 2371.47 1660.7 2320.92 1679.1 2265.03 1653.03 2246.63 1602.48 2302.94 1639.23 2378.38 1623.38 2415.13 1567.07 2421.44 1557.4 2426.34 1546.9 2429.68 1535.86Z" fill="#77608E" fill-rule="evenodd"/><path d="M97.4023 194.805C43.6085 194.805 0 151.196 0 97.4023-1.24006e-14 43.6085 43.6085-1.24006e-14 97.4023-2.48012e-14 43.6085 40.3454 32.7064 116.66 73.0517 170.454 79.9739 179.684 88.1728 187.882 97.4023 194.805Z" fill="#77608E" fill-rule="evenodd" transform="matrix(0.34202 -0.939693 -0.939693 -0.34202 2720.42 1694.01)"/><path d="M2486 1887 2500.5 1801 2515 1887Z" fill="#77608E" fill-rule="evenodd"/><path d="M2423.16 1874.03 2478.65 1806.62 2448.01 1888.38Z" fill="#77608E" fill-rule="evenodd"/><path d="M2552.34 1888.38 2521.71 1806.62 2577.2 1874.03Z" fill="#77608E" fill-rule="evenodd"/></g></svg>