<svg width="776" height="775" xmlns="http://www.w3.org/2000/svg" xmlns:xlink="http://www.w3.org/1999/xlink" xml:space="preserve" overflow="hidden"><defs><clipPath id="clip0"><rect x="3481" y="957" width="776" height="775"/></clipPath></defs><g clip-path="url(#clip0)" transform="translate(-3481 -957)"><path d="M3481 1344.5C3481 1130.49 3654.71 957 3869 957 4083.29 957 4257 1130.49 4257 1344.5 4257 1558.51 4083.29 1732 3869 1732 3654.71 1732 3481 1558.51 3481 1344.5Z" fill="#FD565F" fill-rule="evenodd"/><path d="M119 374C53.2781 374 0 290.277 0 187-1.51503e-14 83.7227 53.2781-2.38076e-14 119-4.76152e-14 53.2781 25.9936 13.4094 130.788 29.9508 234.066 40.9778 302.914 75.1874 356.672 119 374Z" fill="#B13130" fill-rule="evenodd" transform="matrix(1.83697e-16 1 1 -1.83697e-16 3682 1423)"/><path d="M3798.52 1229.91C3816.92 1280.46 3790.86 1336.36 3740.31 1354.76 3689.76 1373.15 3633.86 1347.09 3615.47 1296.54 3671.78 1333.29 3747.22 1317.44 3783.97 1261.12 3790.27 1251.46 3795.17 1240.95 3798.52 1229.91Z" fill="#B13130" fill-rule="evenodd"/><path d="M97.4023 194.805C43.6085 194.805 0 151.196 0 97.4023-1.24006e-14 43.6085 43.6085-1.24006e-14 97.4023-2.48012e-14 43.6085 40.3454 32.7064 116.66 73.0517 170.454 79.9739 179.684 88.1728 187.882 97.4023 194.805Z" fill="#B13130" fill-rule="evenodd" transform="matrix(0.34202 -0.939693 -0.939693 -0.34202 4089.25 1388.07)"/><path d="M3855 1581 3869 1495 3883 1581Z" fill="#B13130" fill-rule="evenodd"/><path d="M3792 1568.09 3847.49 1500.68 3816.85 1582.44Z" fill="#B13130" fill-rule="evenodd"/><path d="M3921.18 1582.44 3890.55 1500.68 3946.03 1568.09Z" fill="#B13130" fill-rule="evenodd"/></g></svg>