<svg width="775" height="775" xmlns="http://www.w3.org/2000/svg" xmlns:xlink="http://www.w3.org/1999/xlink" xml:space="preserve" overflow="hidden"><defs><clipPath id="clip0"><rect x="215" y="957" width="775" height="775"/></clipPath></defs><g clip-path="url(#clip0)" transform="translate(-215 -957)"><path d="M215 1344.5C215 1130.49 388.49 957 602.5 957 816.51 957 990 1130.49 990 1344.5 990 1558.51 816.51 1732 602.5 1732 388.49 1732 215 1558.51 215 1344.5Z" fill="#64C964" fill-rule="evenodd"/><path d="M850 1401C850 1503.17 738.967 1586 602 1586 465.033 1586 354 1503.17 354 1401 516.75 1431.83 687.25 1431.83 850 1401Z" fill="#3E8044" fill-rule="evenodd"/><path d="M352.695 1350.57C334.296 1300.02 360.36 1244.13 410.909 1225.73 461.459 1207.33 517.352 1233.4 535.751 1283.94 479.44 1247.19 403.999 1263.05 367.248 1319.36 360.943 1329.02 356.043 1339.53 352.695 1350.57Z" fill="#3E8044" fill-rule="evenodd"/><path d="M97.4023 194.805C43.6085 194.805 0 151.196 0 97.4023-1.24006e-14 43.6085 43.6085-1.24006e-14 97.4023-2.48012e-14 43.6085 40.3454 32.7064 116.66 73.0517 170.454 79.9739 179.684 88.1728 187.882 97.4023 194.805Z" fill="#3E8044" fill-rule="evenodd" transform="matrix(-0.34202 0.939693 0.939693 0.34202 702.445 1192.42)"/></g></svg>