<svg width="775" height="775" xmlns="http://www.w3.org/2000/svg" xmlns:xlink="http://www.w3.org/1999/xlink" xml:space="preserve" overflow="hidden"><defs><clipPath id="clip0"><rect x="1016" y="957" width="775" height="775"/></clipPath></defs><g clip-path="url(#clip0)" transform="translate(-1016 -957)"><path d="M1016 1344.5C1016 1130.49 1189.49 957 1403.5 957 1617.51 957 1791 1130.49 1791 1344.5 1791 1558.51 1617.51 1732 1403.5 1732 1189.49 1732 1016 1558.51 1016 1344.5Z" fill="#9DD772" fill-rule="evenodd"/><path d="M1580 1408C1580 1488.08 1501.2 1553 1404 1553 1306.8 1553 1228 1488.08 1228 1408 1342.77 1436.56 1465.23 1436.56 1580 1408Z" fill="#399339" fill-rule="evenodd"/><path d="M1196 1281C1196 1253.94 1217.71 1232 1244.5 1232 1271.29 1232 1293 1253.94 1293 1281 1293 1308.06 1271.29 1330 1244.5 1330 1217.71 1330 1196 1308.06 1196 1281Z" fill="#399339" fill-rule="evenodd"/><path d="M0 49C-6.17469e-15 21.938 21.7142-6.23835e-15 48.5-1.24767e-14 75.2858-2.49534e-14 96.9999 21.938 96.9999 49 96.9999 76.0619 75.2858 98 48.5 98 21.7142 98-3.08735e-14 76.0619 0 49Z" fill="#399339" fill-rule="evenodd" transform="matrix(-1 0 0 1 1612 1232)"/></g></svg>