<svg width="775" height="775" xmlns="http://www.w3.org/2000/svg" xmlns:xlink="http://www.w3.org/1999/xlink" xml:space="preserve" overflow="hidden"><defs><clipPath id="clip0"><rect x="2664" y="957" width="775" height="775"/></clipPath></defs><g clip-path="url(#clip0)" transform="translate(-2664 -957)"><path d="M2664 1344.5C2664 1130.49 2837.49 957 3051.5 957 3265.51 957 3439 1130.49 3439 1344.5 3439 1558.51 3265.51 1732 3051.5 1732 2837.49 1732 2664 1558.51 2664 1344.5Z" fill="#FB9E49" fill-rule="evenodd"/><path d="M90.0001 305C40.2944 305 0 236.724 0 152.5-1.14582e-14 68.2766 40.2944-1.94153e-14 90.0001-3.88306e-14 40.2944 23.5354 11.2599 110.891 25.1496 195.115 33.9428 248.435 58.5326 290.101 90.0001 305Z" fill="#C55A11" fill-rule="evenodd" transform="matrix(1.83697e-16 1 1 -1.83697e-16 2899 1442)"/><path d="M2843 1281C2843 1253.94 2864.94 1232 2892 1232 2919.06 1232 2941 1253.94 2941 1281 2941 1308.06 2919.06 1330 2892 1330 2864.94 1330 2843 1308.06 2843 1281Z" fill="#C55A11" fill-rule="evenodd"/><path d="M0 49C-6.17472e-15 21.938 21.7143-6.23835e-15 48.5001-1.24767e-14 75.286-2.49534e-14 97.0003 21.938 97.0003 49 97.0003 76.0619 75.286 98 48.5001 98 21.7143 98-3.08736e-14 76.0619 0 49Z" fill="#C55A11" fill-rule="evenodd" transform="matrix(-1 0 0 1 3260 1232)"/></g></svg>