<svg width="775" height="775" xmlns="http://www.w3.org/2000/svg" xmlns:xlink="http://www.w3.org/1999/xlink" xml:space="preserve" overflow="hidden"><defs><clipPath id="clip0"><rect x="1840" y="957" width="775" height="775"/></clipPath></defs><g clip-path="url(#clip0)" transform="translate(-1840 -957)"><path d="M1840 1344.5C1840 1130.49 2013.49 957 2227.5 957 2441.51 957 2615 1130.49 2615 1344.5 2615 1558.51 2441.51 1732 2227.5 1732 2013.49 1732 1840 1558.51 1840 1344.5Z" fill="#FFDE15" fill-rule="evenodd"/><path d="M2381 1466C2381 1482.57 2312.5 1496 2228 1496 2143.5 1496 2075 1482.57 2075 1466 2154.71 1482.57 2287.83 1483.33 2372.33 1467.7 2375.3 1467.15 2378.19 1466.58 2381 1466Z" fill="#BF9000" fill-rule="evenodd"/><path d="M2019 1281C2019 1253.94 2040.94 1232 2068 1232 2095.06 1232 2117 1253.94 2117 1281 2117 1308.06 2095.06 1330 2068 1330 2040.94 1330 2019 1308.06 2019 1281Z" fill="#BF9000" fill-rule="evenodd"/><path d="M0 49C-6.17472e-15 21.938 21.7143-6.23835e-15 48.5001-1.24767e-14 75.286-2.49534e-14 97.0003 21.938 97.0003 49 97.0003 76.0619 75.286 98 48.5001 98 21.7143 98-3.08736e-14 76.0619 0 49Z" fill="#BF9000" fill-rule="evenodd" transform="matrix(-1 0 0 1 2436 1232)"/></g></svg>