<svg width="188" height="173" viewBox="0 0 188 173" fill="none" xmlns="http://www.w3.org/2000/svg">
<path d="M93.8929 35.4886C53.3597 -14.2452 10.5631 21.0928 10 59.1863C10 115.897 77.8536 162.444 93.8929 162.444C109.932 162.444 177.786 115.897 177.786 59.1863C177.222 21.0928 134.426 -14.2452 93.8929 35.4886Z" fill="#D7E0FF"/>
<path d="M11.7557 46.4514C20.24 14.1703 57.9557 -8.607 93.8926 35.4868C134.426 -14.2469 177.222 21.091 177.786 59.1846C177.786 115.895 109.932 162.443 93.8926 162.443C84.2998 162.443 56.1735 145.793 35.1138 120.277" stroke="#4147D5" stroke-width="20" stroke-linecap="round" stroke-linejoin="round"/>
<path d="M127.45 80.0102H107.316L87.1816 106.856L60.3358 59.8759L40.2015 86.7216H10" stroke="#4147D5" stroke-width="20" stroke-linecap="round" stroke-linejoin="round"/>
</svg>
