<svg width="1775" height="484" xmlns="http://www.w3.org/2000/svg" xmlns:xlink="http://www.w3.org/1999/xlink" xml:space="preserve" overflow="hidden"><defs><clipPath id="clip0"><rect x="2375" y="1795" width="1775" height="484"/></clipPath><linearGradient x1="2861" y1="2151" x2="4150" y2="2151" gradientUnits="userSpaceOnUse" spreadMethod="reflect" id="fill1"><stop offset="0" stop-color="#FFFFFF" stop-opacity="0"/><stop offset="0.02" stop-color="#FFFFFF" stop-opacity="0.501961"/><stop offset="0.04" stop-color="#4147D5" stop-opacity="0.101961"/><stop offset="0.95" stop-color="#4147D5" stop-opacity="0.4"/><stop offset="0.99" stop-color="#4147D5" stop-opacity="0.501961"/><stop offset="1" stop-color="#4147D5" stop-opacity="0"/></linearGradient></defs><g clip-path="url(#clip0)" transform="translate(-2375 -1795)"><rect x="2861" y="2095" width="1289" height="112" fill="url(#fill1)"/><path d="M389.715 269.495 389.715 269.495 389.715 269.495 389.715 269.495ZM70.8802 70.8802C100.414 41.3469 135.681 21.0428 173.099 9.96756L183.916 7.32648 183.916 269.495 183.916 269.495 183.916 269.495 183.916 269.495 183.916 269.495 286.816 408.465 286.816 408.465 183.916 269.495 183.916 269.495 183.916 269.495 183.916 269.495 183.916 269.495 183.916 7.32648 195.78 4.42994C256.795-7.38324 321.481 4.43013 375.157 39.8701L389.716 50.5733 389.716 50.5735 394.74 54.2678C401.077 59.4362 407.213 64.9734 413.12 70.8804 507.627 165.387 507.627 318.613 413.12 413.12 318.613 507.627 165.387 507.627 70.8802 413.12-23.6267 318.613-23.6267 165.387 70.8802 70.8802Z" fill="#D7E0FF" fill-rule="evenodd" transform="matrix(-1 0 0 1 2859 1795)"/><path d="M0 0 0 0 94.3809 127.464 94.3808 127.464 0 0Z" fill="#D7E0FF" fill-rule="evenodd" transform="matrix(-0.707107 0.707107 0.707107 0.707107 2679.32 2029.41)"/><path d="M0 0 0.000186737 0 8.52211 11.5089 8.52211 11.5089 0 0Z" fill="#D7E0FF" fill-rule="evenodd" transform="matrix(-0.707107 0.707107 0.707107 0.707107 2677.21 2015.25)"/><path d="M0.000186733 7.32667 11.8643 4.43006C72.8817-7.38343 137.569 4.43025 191.246 39.8711L205.805 50.5747 205.805 269.502 205.805 269.502 102.903 408.475 0.000186733 269.502 0 269.502 0 269.502 0 269.502 0.000186733 269.502 0.000186733 7.32667Z" fill="#A0A2D4" fill-rule="evenodd" transform="matrix(-0.707107 0.707107 0.707107 0.707107 2486.65 1824.68)"/><path d="M2720.25 1988.48 2745.76 2159.52 2574.73 2134.01Z" fill="#FFF2CC" fill-rule="evenodd"/><path d="M2738.94 2113.77 2745.76 2159.52 2700.01 2152.69Z" fill-rule="evenodd"/><path d="M0 25.5838 10.9372 20.0049C19.9672 16.0824 29.1875 12.7367 38.5421 9.96783L49.359 7.32667 49.359 269.502 49.3592 269.502 49.3592 7.32667 61.2233 4.43006C106.986-4.43006 154.814 0.000186733 198.513 17.7206L205.805 21.1054 205.805 281.011 57.881 281.011 49.3592 269.502 49.359 269.502 49.359 269.502 49.359 269.502 49.3589 269.502 49.3589 269.503 49.359 269.502 57.881 281.011 0 281.011 0 25.5838Z" fill="#7476FF" fill-rule="evenodd" transform="matrix(-0.707107 0.707107 0.707107 0.707107 2521.55 1789.78)"/><path d="M3086.15 1877.01C3104.12 1876.9 3120.11 1878.17 3134.14 1880.8 3148.17 1883.43 3160.54 1888.04 3171.23 1894.61 3180.25 1900.17 3187.28 1907.58 3192.32 1916.85 3197.36 1926.12 3199.92 1936.72 3200 1948.65 3199.92 1960.57 3197.36 1971.12 3192.32 1980.3 3187.28 1989.48 3180.25 1996.85 3171.23 2002.39 3160.54 2008.96 3148.17 2013.57 3134.14 2016.2 3120.11 2018.83 3104.12 2020.1 3086.15 2019.99 3068.03 2020.1 3051.96 2018.83 3037.93 2016.2 3023.9 2013.57 3011.61 2008.96 3001.07 2002.39 2991.91 1996.85 2984.79 1989.48 2979.72 1980.3 2974.65 1971.12 2972.08 1960.57 2972 1948.65 2972.08 1936.72 2974.65 1926.12 2979.72 1916.85 2984.79 1907.58 2991.91 1900.17 3001.07 1894.61 3011.61 1888.04 3023.9 1883.43 3037.93 1880.8 3051.96 1878.17 3068.03 1876.9 3086.15 1877.01ZM3086.15 1906.15C3070.14 1906.08 3056.6 1906.98 3045.54 1908.84 3034.48 1910.71 3025.71 1913.96 3019.24 1918.6 3014.54 1922.11 3010.99 1926.4 3008.6 1931.46 3006.21 1936.53 3005.01 1942.26 3005 1948.65 3005.01 1954.79 3006.21 1960.42 3008.6 1965.54 3010.99 1970.66 3014.54 1974.84 3019.24 1978.1 3025.71 1982.76 3034.48 1986.11 3045.54 1988.16 3056.6 1990.2 3070.14 1991.2 3086.15 1991.15 3102.02 1991.2 3115.47 1990.2 3126.5 1988.16 3137.52 1986.11 3146.28 1982.76 3152.76 1978.1 3157.61 1974.84 3161.24 1970.66 3163.67 1965.54 3166.09 1960.42 3167.3 1954.79 3167.3 1948.65 3167.3 1942.26 3166.09 1936.53 3163.67 1931.46 3161.24 1926.4 3157.61 1922.11 3152.76 1918.6 3146.28 1913.96 3137.52 1910.71 3126.5 1908.84 3115.47 1906.98 3102.02 1906.08 3086.15 1906.15Z" fill-rule="evenodd"/><path d="M3448.03 1877 3481 1877 3481 2152 3448.03 2152 3448.03 2116.22C3442.42 2121.72 3434.13 2125.96 3423.15 2128.96 3412.17 2131.95 3399.49 2133.47 3385.11 2133.5L3262 2133.5 3262 1991.91 3357.59 1991.91 3357.59 1910.96 3262 1910.96 3262 1881.85 3389.95 1881.85 3389.95 2020.72 3294.67 2020.72 3294.67 2104.7 3391.46 2104.7C3404.09 2104.69 3415.22 2103.35 3424.85 2100.68 3434.49 2098.02 3442.21 2094.1 3448.03 2088.93L3448.03 1877Z" fill-rule="evenodd"/><path d="M3558.84 1884 3577.32 1884 3577.32 2015.29 3770.58 2015.29 3770.58 2031.93 3673.34 2031.93 3673.34 2120.57 3783 2120.57 3783 2136 3544 2136 3544 2120.57 3654.87 2120.57 3654.87 2031.93 3558.84 2031.93 3558.84 1884Z" fill-rule="evenodd"/><path d="M3848 1885 4056.68 1885 4056.68 1901.33 3866.42 1901.33 3866.42 1962.14 4053.05 1962.14 4053.05 1978.17 3866.42 1978.17 3866.42 2038.67 4060 2038.67 4060 2055 3848 2055 3848 1885Z" fill-rule="evenodd"/><path d="M2964 2052 3208 2052 3208 2080.95 3155.56 2080.95 3155.56 2155 3123.13 2155 3123.13 2080.95 3050.08 2080.95 3050.08 2155 3017.65 2155 3017.65 2080.95 2964 2080.95 2964 2052Z" fill-rule="evenodd"/><path d="M3833 2120 4072 2120 4072 2136 3833 2136 3833 2120Z" fill-rule="evenodd"/></g></svg>